<?xml version="1.0" encoding="utf-8"?>
<!-- Generator: Adobe Illustrator 28.2.0, SVG Export Plug-In . SVG Version: 6.00 Build 0)  -->
<svg version="1.1" id="Layer_1" xmlns="http://www.w3.org/2000/svg" xmlns:xlink="http://www.w3.org/1999/xlink" x="0px" y="0px"
	 viewBox="0 0 180 180" style="enable-background:new 0 0 180 180;" xml:space="preserve">
<style type="text/css">
	.st0{fill:#F9EAD7;}
</style>
<g>
	<path class="st0" d="M88.48,27.72c26.01,0,48.34,16.04,57.65,38.74h2.53c-9.43-24.03-32.84-41.1-60.18-41.1S37.74,42.43,28.3,66.46
		h2.53C40.14,43.76,62.47,27.72,88.48,27.72z"/>
	<path class="st0" d="M88.48,152.28c-28.92,0-53.3-19.82-60.27-46.59h-2.42c7.03,28.08,32.47,48.95,62.7,48.95
		s55.67-20.86,62.7-48.95h-2.42C141.78,132.46,117.4,152.28,88.48,152.28z"/>
	<path class="st0" d="M31.19,80.89c-0.31,0.04-0.7,0.09-1.1,0.09c-1.89,0-4.17-0.75-4.17-2.24c0-2.11,4.7-4.48,10.36-5.05
		c-0.75,3.82-2.06,10.84-2.9,14.61c-0.75,2.98-2.24,9.48-2.76,11.19c0.48,0.57,1.45,0.92,2.5,0.92c1.67,0,2.76-0.7,3.07-2.19
		c0.13-0.53,0.88-4.17,1.8-8.73c0.66-0.13,1.32-0.35,1.97-0.57c1.4,7.68,6.32,15.71,9.22,15.71c2.06,0,3.42-2.24,3.55-3.55
		c-4.39-1.54-8.43-9.22-9.92-13.47c7.11-3.86,13.17-12.02,13.17-15.4c0-1.45-1.4-2.46-3.47-2.59c-2.02,7.07-8.12,14.17-13.96,16.98
		c1.27-6.28,2.72-13.38,3.42-16.5c-0.48-0.22-1.75-0.66-3.25-0.66c-8.51,0-15.23,4.08-15.23,9.48c0,3.55,2.85,5.4,4.87,5.4
		C29.75,84.31,31.19,83.39,31.19,80.89z"/>
	<path class="st0" d="M137.53,70.49c-1.67,0-3.07,2.33-3.07,4.3c0,0.48,0.04,0.92,0.22,1.32c0.39,0.79,1.14,1.1,1.89,1.1
		c0.35,0,0.66-0.04,0.92-0.13c0.92-0.26,3.03-4.39,2.76-5C139.85,71.24,138.93,70.49,137.53,70.49z"/>
	<path class="st0" d="M157.93,87.17c-0.7,1.67-2.98,5.49-5.44,7.72c0.4-0.88,0.66-1.8,0.66-2.72c0-2.37-1.62-4.78-3.2-7.11
		c-0.66-1.01-1.36-2.02-1.89-2.98c0.22-0.66,0.39-1.27,0.39-1.8c0-0.66-0.53-1.14-1.32-1.14c-1.89,0-2.94,0.97-3.42,2.72
		c-0.04,0.26-0.04,0.48-0.04,0.79c-0.51,1.41-1.15,3.05-1.88,4.64c-0.59,1.19-1.32,2.55-2.11,3.85c-0.07,0.11-0.15,0.23-0.22,0.33
		c0,0.01,0,0.02,0,0.02c-1.69,2.74-3.61,5.16-5.01,5.16c-0.22,0-0.31-0.31-0.31-0.75c0-3.2,3.16-11.02,3.16-12.77
		c0-2.19-2.24-2.81-4.61-2.76c-0.27,1.54-0.9,4.43-1.55,7.31c-0.89,1.84-2.96,5.17-5.21,7.22c0.4-0.88,0.66-1.8,0.66-2.72
		c0-2.37-1.62-4.78-3.2-7.11c-0.66-1.01-1.36-2.02-1.89-2.98c0.22-0.66,0.39-1.27,0.39-1.8c0-0.66-0.53-1.14-1.32-1.14
		c-1.89,0-2.94,0.97-3.42,2.72c-0.04,0.26-0.04,0.48-0.04,0.79c-0.24,0.67-0.52,1.39-0.81,2.13c-1.4,1.21-3.28,2.16-5.42,2.65V87.3
		c0-4.48-1.76-6.93-4.56-6.93c-1.05,0-1.89,0.31-2.59,0.83c-4.88,0.6-7.67,4.26-8.94,7.89c-2.12,3.87-4.64,7.56-6.33,7.56
		c-0.09,0-0.13-0.18-0.13-0.4c0-1.84,2.9-10.14,2.9-12.81c0-1.67-1.62-3.12-3.38-3.12c-4.74,0-9.08,6.63-11.37,11.67l-0.18-0.13
		c0.7-2.59,2.81-7.24,2.81-8.78c0-2.15-2.54-2.72-4.3-2.72c-0.38,1.38-1.16,4.49-1.9,7.73c-2.89,5.46-6.39,8.99-10.87,8.99
		c-2.06,0-3.29-1.23-3.29-4.08c0-0.31,0-0.57,0.04-0.88c4.78-0.57,11.02-3.33,11.02-8.07c0-1.93-1.27-3.69-4.96-3.69
		c-7.07,0-11.28,7.5-11.28,12.86c0,3.64,2.19,7.2,6.76,7.2c4.97,0,8.99-3.67,11.49-7.19c-0.36,1.89-0.6,3.48-0.6,4.33
		c0,1.67,2.02,2.9,4.43,2.9c0.09-0.66,0.22-2.41,0.44-3.47c1.89-6.19,7.5-13.03,9.57-13.03c0.22,0,0.31,0.22,0.31,0.61
		c0,1.89-2.72,9.83-2.72,11.94c0,1.67,1.49,3.91,4.26,3.91c1.88,0,4.28-2.81,6.46-6.4c0.09,3.56,2.04,6.4,6.53,6.4
		c6.32,0,9.65-5.62,10.27-11.19c1.52-0.32,3-0.86,4.31-1.59c-0.66,1.4-1.39,2.75-2.16,3.82c0,0.57,0.61,1.27,1.18,1.27
		c1.27-1.93,2.59-4.65,3.6-7.02c0.53,1.4,1.4,2.59,2.24,3.73c1.1,1.58,2.15,2.98,2.15,4.56c0,1.71-1.14,2.9-3.16,2.9
		c-1.32,0-2.5-0.53-3.55-2.28c-1.45,0.97-2.02,2.06-2.02,3.03c0,1.4,1.14,2.63,3.6,2.76c0.09,0,0.18,0,0.26,0h0.17
		c0.26,0,0.57,0,0.83-0.04c5.55-0.51,9.42-4.11,11.72-7.34c-0.31,1.4-0.55,2.48-0.62,2.91c-0.04,0.17-0.04,0.39-0.04,0.57
		c0,2.28,1.89,3.91,4.21,3.91c3.23,0,7.43-7.5,9.15-11.23c0.58-1.15,1.12-2.35,1.6-3.47c0.53,1.4,1.4,2.59,2.24,3.73
		c1.1,1.58,2.15,2.98,2.15,4.56c0,1.71-1.14,2.9-3.16,2.9c-1.32,0-2.5-0.53-3.55-2.28c-1.45,0.97-2.02,2.06-2.02,3.03
		c0,1.4,1.14,2.63,3.6,2.76c0.09,0,0.18,0,0.26,0h0.17c0.26,0,0.57,0,0.83-0.04c9.08-0.83,13.69-9.96,14.22-12.16
		C158.99,87.82,158.68,87.17,157.93,87.17z M64.02,82.47c1.05,0,1.36,0.7,1.36,2.06c0,2.41-2.06,4.92-6.32,5.97
		C59.85,87.17,62,82.47,64.02,82.47z M101.67,97.92c-1.84,0-2.46-1.76-2.46-4.21c0-3.2,1.05-6.41,2.5-8.56
		c0.04,2.33,2.46,4.43,5.84,4.43h0.39C107.25,94.05,104.39,97.92,101.67,97.92z M108.08,87.74h-0.18c-2.5,0-4.04-1.23-4.04-3.42
		c0-1.14,0.44-1.67,1.32-1.67c1.4,0,2.9,1.49,2.9,5C108.08,87.69,108.08,87.69,108.08,87.74z"/>
</g>
</svg>
